# Blender 4.5.3 LTS
# www.blender.org
o Lights
v -10.974348 45.790054 13.248333
v 7.118599 52.713009 -0.007445
v -23.975727 37.744267 -25.290199
v 17.439823 52.000534 -19.832396
v 16.709213 50.217850 26.347723
v -35.568687 44.240662 7.523088
v -40.723068 39.547295 -23.732679
vn -0.2974 0.9360 -0.1884
vn -0.0288 0.9892 -0.1438
vn 0.0830 0.9696 -0.2304
vn -0.2363 0.9555 0.1765
vn -0.3939 0.9173 -0.0586
vt 0.000000 0.000000
s 0
f 3/1/1 2/1/1 4/1/1
f 1/1/2 7/1/2 6/1/2
f 1/1/3 3/1/3 7/1/3
f 2/1/4 1/1/4 5/1/4
f 3/1/5 1/1/5 2/1/5
