# Blender 4.5.3 LTS
# www.blender.org
o Lights
v -12.843704 7.102552 19.431036
v 16.429754 9.653366 2.029266
v -7.798691 12.310984 -34.936462
v 41.158508 10.340389 -26.008383
v 8.583595 9.667539 21.531279
v 17.629000 11.826002 21.869148
v -28.142031 7.612159 8.159762
v -34.045582 24.918758 -19.874210
v 20.179276 4.242383 -31.769064
v 12.502834 7.665720 -25.455469
vn 0.0308 0.9982 0.0516
vn -0.3749 0.7515 0.5429
vn -0.1403 0.4499 0.8820
vn 0.4882 0.8633 0.1280
vn -0.1447 0.9845 -0.0991
vn 0.1833 0.2639 -0.9470
vn 0.0879 -0.8270 0.5553
vn -0.0318 0.9952 0.0924
vt 0.000000 0.000000
s 0
f 3/1/1 2/1/1 4/1/1
f 1/1/2 8/1/2 7/1/2
f 5/1/3 6/1/3 1/1/3
f 1/1/4 3/1/4 8/1/4
f 2/1/5 1/1/5 6/1/5
f 3/1/6 4/1/6 9/1/6
f 9/1/7 4/1/7 10/1/7
f 3/1/8 1/1/8 2/1/8
