# Blender 4.5.3 LTS
# www.blender.org
o Lights
v -11.603264 4.548989 17.504656
v 11.960498 17.262211 6.173334
v -4.503795 13.901127 -14.591464
v 11.208534 7.221470 -11.804799
v 5.619368 24.574305 40.094597
v 12.001548 13.920574 24.629282
v -28.074030 14.907542 -5.990607
v -12.724868 8.012785 -36.704044
vn 0.4154 0.7867 -0.4567
vn 0.4842 0.8738 0.0458
vn -0.1328 0.7898 -0.5989
vn -0.6838 0.7271 0.0606
vn -0.4063 0.8990 0.1637
vn -0.4019 0.8992 0.1731
vt 0.000000 0.000000
s 0
f 3/1/1 2/1/1 4/1/1
f 1/1/2 8/1/2 7/1/2
f 5/1/3 6/1/3 1/1/3
f 1/1/4 3/1/4 8/1/4
f 2/1/5 1/1/5 6/1/5
f 3/1/6 1/1/6 2/1/6
